<svg xmlns="http://www.w3.org/2000/svg" version="1.1" xmlns:xlink="http://www.w3.org/1999/xlink" xmlns:svgjs="http://svgjs.com/svgjs" width="512" height="512" x="0" y="0" viewBox="0 0 512 512" style="enable-background:new 0 0 512 512" xml:space="preserve" class=""><g>
<rect xmlns="http://www.w3.org/2000/svg" y="85.333" style="" width="512" height="341.337" fill="#f0f0f0" data-original="#f0f0f0" class=""></rect>
<polygon xmlns="http://www.w3.org/2000/svg" style="" points="288,85.33 224,85.33 224,223.996 0,223.996 0,287.996 224,287.996 224,426.662 288,426.662   288,287.996 512,287.996 512,223.996 288,223.996 " fill="#d80027" data-original="#d80027" class=""></polygon>
<g xmlns="http://www.w3.org/2000/svg">
	<polygon style="" points="393.785,315.358 512,381.034 512,315.358  " fill="#0052b4" data-original="#0052b4" class=""></polygon>
	<polygon style="" points="311.652,315.358 512,426.662 512,395.188 368.307,315.358  " fill="#0052b4" data-original="#0052b4" class=""></polygon>
	<polygon style="" points="458.634,426.662 311.652,344.998 311.652,426.662  " fill="#0052b4" data-original="#0052b4" class=""></polygon>
</g>
<polygon xmlns="http://www.w3.org/2000/svg" style="" points="311.652,315.358 512,426.662 512,395.188 368.307,315.358 " fill="#f0f0f0" data-original="#f0f0f0" class=""></polygon>
<polygon xmlns="http://www.w3.org/2000/svg" style="" points="311.652,315.358 512,426.662 512,395.188 368.307,315.358 " fill="#d80027" data-original="#d80027" class=""></polygon>
<g xmlns="http://www.w3.org/2000/svg">
	<polygon style="" points="90.341,315.356 0,365.546 0,315.356  " fill="#0052b4" data-original="#0052b4" class=""></polygon>
	<polygon style="" points="200.348,329.51 200.348,426.661 25.491,426.661  " fill="#0052b4" data-original="#0052b4" class=""></polygon>
</g>
<polygon xmlns="http://www.w3.org/2000/svg" style="" points="143.693,315.358 0,395.188 0,426.662 0,426.662 200.348,315.358 " fill="#d80027" data-original="#d80027" class=""></polygon>
<g xmlns="http://www.w3.org/2000/svg">
	<polygon style="" points="118.215,196.634 0,130.958 0,196.634  " fill="#0052b4" data-original="#0052b4" class=""></polygon>
	<polygon style="" points="200.348,196.634 0,85.33 0,116.804 143.693,196.634  " fill="#0052b4" data-original="#0052b4" class=""></polygon>
	<polygon style="" points="53.366,85.33 200.348,166.994 200.348,85.33  " fill="#0052b4" data-original="#0052b4" class=""></polygon>
</g>
<polygon xmlns="http://www.w3.org/2000/svg" style="" points="200.348,196.634 0,85.33 0,116.804 143.693,196.634 " fill="#f0f0f0" data-original="#f0f0f0" class=""></polygon>
<polygon xmlns="http://www.w3.org/2000/svg" style="" points="200.348,196.634 0,85.33 0,116.804 143.693,196.634 " fill="#d80027" data-original="#d80027" class=""></polygon>
<g xmlns="http://www.w3.org/2000/svg">
	<polygon style="" points="421.659,196.636 512,146.446 512,196.636  " fill="#0052b4" data-original="#0052b4" class=""></polygon>
	<polygon style="" points="311.652,182.482 311.652,85.331 486.509,85.331  " fill="#0052b4" data-original="#0052b4" class=""></polygon>
</g>
<polygon xmlns="http://www.w3.org/2000/svg" style="" points="368.307,196.634 512,116.804 512,85.33 512,85.33 311.652,196.634 " fill="#d80027" data-original="#d80027" class=""></polygon>
<g xmlns="http://www.w3.org/2000/svg">
</g>
<g xmlns="http://www.w3.org/2000/svg">
</g>
<g xmlns="http://www.w3.org/2000/svg">
</g>
<g xmlns="http://www.w3.org/2000/svg">
</g>
<g xmlns="http://www.w3.org/2000/svg">
</g>
<g xmlns="http://www.w3.org/2000/svg">
</g>
<g xmlns="http://www.w3.org/2000/svg">
</g>
<g xmlns="http://www.w3.org/2000/svg">
</g>
<g xmlns="http://www.w3.org/2000/svg">
</g>
<g xmlns="http://www.w3.org/2000/svg">
</g>
<g xmlns="http://www.w3.org/2000/svg">
</g>
<g xmlns="http://www.w3.org/2000/svg">
</g>
<g xmlns="http://www.w3.org/2000/svg">
</g>
<g xmlns="http://www.w3.org/2000/svg">
</g>
<g xmlns="http://www.w3.org/2000/svg">
</g>
</g></svg>